<?xml version="1.0" encoding="UTF-8" standalone="no"?>
<!DOCTYPE svg PUBLIC "-//W3C//DTD SVG 1.1//EN"
 "http://www.w3.org/Graphics/SVG/1.1/DTD/svg11.dtd">
<!-- Generated by graphviz version 2.40.1 (20161225.0304)
 -->
<!-- Title: favorites Pages: 1 -->
<svg width="666pt" height="472pt"
 viewBox="0.00 0.00 666.00 472.00" xmlns="http://www.w3.org/2000/svg" xmlns:xlink="http://www.w3.org/1999/xlink">
<g id="graph0" class="graph" transform="scale(1 1) rotate(0) translate(4 468)">
<title>favorites</title>
<polygon fill="#ffffff" stroke="transparent" points="-4,4 -4,-468 662,-468 662,4 -4,4"/>
<!-- favorites -->
<g id="node1" class="node">
<title>favorites</title>
<polygon fill="#efefef" stroke="transparent" points="240,-382.5 240,-417.5 419,-417.5 419,-382.5 240,-382.5"/>
<polygon fill="none" stroke="#000000" points="240,-382.5 240,-417.5 419,-417.5 419,-382.5 240,-382.5"/>
<text text-anchor="start" x="246.8684" y="-395.3" font-family="Arial Bold" font-size="18.00" fill="#000000">favorites</text>
<text text-anchor="start" x="314.8778" y="-395.3" font-family="Arial" font-size="14.00" fill="#000000"> </text>
<text text-anchor="start" x="318.7684" y="-395.3" font-family="Arial" font-size="14.00" fill="#666666">[BASE TABLE]</text>
<polygon fill="none" stroke="#000000" points="240,-352.5 240,-382.5 419,-382.5 419,-352.5 240,-352.5"/>
<text text-anchor="start" x="247" y="-363.9" font-family="Arial" font-size="14.00" fill="#000000">id </text>
<text text-anchor="start" x="261.7798" y="-363.9" font-family="Arial" font-size="14.00" fill="#666666">[int]</text>
<polygon fill="none" stroke="#000000" points="240,-322.5 240,-352.5 419,-352.5 419,-322.5 240,-322.5"/>
<text text-anchor="start" x="247" y="-333.9" font-family="Arial" font-size="14.00" fill="#000000">user_id </text>
<text text-anchor="start" x="296.7882" y="-333.9" font-family="Arial" font-size="14.00" fill="#666666">[int]</text>
<polygon fill="none" stroke="#000000" points="240,-292.5 240,-322.5 419,-322.5 419,-292.5 240,-292.5"/>
<text text-anchor="start" x="247" y="-303.9" font-family="Arial" font-size="14.00" fill="#000000">post_id </text>
<text text-anchor="start" x="296.0182" y="-303.9" font-family="Arial" font-size="14.00" fill="#666666">[int]</text>
<polygon fill="none" stroke="#000000" stroke-width="3" points="238,-291.5 238,-419.5 420,-419.5 420,-291.5 238,-291.5"/>
</g>
<!-- users -->
<g id="node2" class="node">
<title>users</title>
<polygon fill="#efefef" stroke="transparent" points="123,-132.5 123,-167.5 278,-167.5 278,-132.5 123,-132.5"/>
<polygon fill="none" stroke="#000000" points="123,-132.5 123,-167.5 278,-167.5 278,-132.5 123,-132.5"/>
<text text-anchor="start" x="129.8708" y="-145.3" font-family="Arial Bold" font-size="18.00" fill="#000000">users</text>
<text text-anchor="start" x="173.8754" y="-145.3" font-family="Arial" font-size="14.00" fill="#000000"> </text>
<text text-anchor="start" x="177.766" y="-145.3" font-family="Arial" font-size="14.00" fill="#666666">[BASE TABLE]</text>
<polygon fill="none" stroke="#000000" points="123,-102.5 123,-132.5 278,-132.5 278,-102.5 123,-102.5"/>
<text text-anchor="start" x="130" y="-113.9" font-family="Arial" font-size="14.00" fill="#000000">id </text>
<text text-anchor="start" x="144.7798" y="-113.9" font-family="Arial" font-size="14.00" fill="#666666">[int]</text>
<polygon fill="none" stroke="#000000" points="123,-72.5 123,-102.5 278,-102.5 278,-72.5 123,-72.5"/>
<text text-anchor="start" x="130" y="-83.9" font-family="Arial" font-size="14.00" fill="#000000">name </text>
<text text-anchor="start" x="168.899" y="-83.9" font-family="Arial" font-size="14.00" fill="#666666">[varchar(100)]</text>
<polygon fill="none" stroke="#000000" points="123,-42.5 123,-72.5 278,-72.5 278,-42.5 123,-42.5"/>
<text text-anchor="start" x="130" y="-53.9" font-family="Arial" font-size="14.00" fill="#000000">created_at </text>
<text text-anchor="start" x="200.028" y="-53.9" font-family="Arial" font-size="14.00" fill="#666666">[datetime]</text>
</g>
<!-- favorites&#45;&gt;users -->
<g id="edge1" class="edge">
<title>favorites:user_id&#45;&gt;users:id</title>
<path fill="none" stroke="#000000" d="M229.995,-336.0332C204.4491,-327.1992 225.659,-280.3408 240,-247 249.1925,-225.6287 268.8075,-232.3713 278,-211 294.4198,-172.826 319.5556,-117.5 278,-117.5"/>
<polygon fill="#000000" stroke="#000000" points="230.1058,-336.0494 239.3472,-341.9524 235.0529,-336.7747 240,-337.5 240,-337.5 240,-337.5 235.0529,-336.7747 240.6528,-333.0476 230.1058,-336.0494 230.1058,-336.0494"/>
<text text-anchor="start" x="6.945" y="-347.5" font-family="Arial" font-size="10.00" fill="#000000">FOREIGN KEY (user_id) REFERENCES users (id)</text>
</g>
<!-- posts -->
<g id="node3" class="node">
<title>posts</title>
<polygon fill="#efefef" stroke="transparent" points="382,-117.5 382,-152.5 536,-152.5 536,-117.5 382,-117.5"/>
<polygon fill="none" stroke="#000000" points="382,-117.5 382,-152.5 536,-152.5 536,-117.5 382,-117.5"/>
<text text-anchor="start" x="388.8658" y="-130.3" font-family="Arial Bold" font-size="18.00" fill="#000000">posts</text>
<text text-anchor="start" x="431.8804" y="-130.3" font-family="Arial" font-size="14.00" fill="#000000"> </text>
<text text-anchor="start" x="435.771" y="-130.3" font-family="Arial" font-size="14.00" fill="#666666">[BASE TABLE]</text>
<polygon fill="none" stroke="#000000" points="382,-87.5 382,-117.5 536,-117.5 536,-87.5 382,-87.5"/>
<text text-anchor="start" x="389" y="-98.9" font-family="Arial" font-size="14.00" fill="#000000">id </text>
<text text-anchor="start" x="403.7798" y="-98.9" font-family="Arial" font-size="14.00" fill="#666666">[int]</text>
<polygon fill="none" stroke="#000000" points="382,-57.5 382,-87.5 536,-87.5 536,-57.5 382,-57.5"/>
<text text-anchor="start" x="389" y="-68.9" font-family="Arial" font-size="14.00" fill="#000000">user_id </text>
<text text-anchor="start" x="438.7882" y="-68.9" font-family="Arial" font-size="14.00" fill="#666666">[int]</text>
</g>
<!-- favorites&#45;&gt;posts -->
<g id="edge2" class="edge">
<title>favorites:post_id&#45;&gt;posts:id</title>
<path fill="none" stroke="#000000" d="M428.8084,-304.8754C440.0664,-296.2921 425.9385,-268.3797 419,-247 410.3556,-220.3641 390.6444,-222.6359 382,-196 369.1722,-156.4739 340.4444,-102.5 382,-102.5"/>
<polygon fill="#000000" stroke="#000000" points="428.6601,-304.915 417.8367,-303.1529 423.8301,-306.2075 419,-307.5 419,-307.5 419,-307.5 423.8301,-306.2075 420.1633,-311.8471 428.6601,-304.915 428.6601,-304.915"/>
<text text-anchor="start" x="426.495" y="-317.5" font-family="Arial" font-size="10.00" fill="#000000">FOREIGN KEY (post_id) REFERENCES posts (id)</text>
</g>
</g>
</svg>
