<?xml version="1.0" encoding="UTF-8" standalone="no"?>
<!DOCTYPE svg PUBLIC "-//W3C//DTD SVG 1.1//EN"
 "http://www.w3.org/Graphics/SVG/1.1/DTD/svg11.dtd">
<!-- Generated by graphviz version 2.40.1 (20161225.0304)
 -->
<!-- Title: posts Pages: 1 -->
<svg width="487pt" height="689pt"
 viewBox="0.00 0.00 487.00 689.00" xmlns="http://www.w3.org/2000/svg" xmlns:xlink="http://www.w3.org/1999/xlink">
<g id="graph0" class="graph" transform="scale(1 1) rotate(0) translate(4 685)">
<title>posts</title>
<polygon fill="#ffffff" stroke="transparent" points="-4,4 -4,-685 483,-685 483,4 -4,4"/>
<!-- posts -->
<g id="node1" class="node">
<title>posts</title>
<polygon fill="#efefef" stroke="transparent" points="163,-352.5 163,-387.5 317,-387.5 317,-352.5 163,-352.5"/>
<polygon fill="none" stroke="#000000" points="163,-352.5 163,-387.5 317,-387.5 317,-352.5 163,-352.5"/>
<text text-anchor="start" x="169.8658" y="-365.3" font-family="Arial Bold" font-size="18.00" fill="#000000">posts</text>
<text text-anchor="start" x="212.8804" y="-365.3" font-family="Arial" font-size="14.00" fill="#000000"> </text>
<text text-anchor="start" x="216.771" y="-365.3" font-family="Arial" font-size="14.00" fill="#666666">[BASE TABLE]</text>
<polygon fill="none" stroke="#000000" points="163,-322.5 163,-352.5 317,-352.5 317,-322.5 163,-322.5"/>
<text text-anchor="start" x="170" y="-333.9" font-family="Arial" font-size="14.00" fill="#000000">id </text>
<text text-anchor="start" x="184.7798" y="-333.9" font-family="Arial" font-size="14.00" fill="#666666">[int]</text>
<polygon fill="none" stroke="#000000" points="163,-292.5 163,-322.5 317,-322.5 317,-292.5 163,-292.5"/>
<text text-anchor="start" x="170" y="-303.9" font-family="Arial" font-size="14.00" fill="#000000">user_id </text>
<text text-anchor="start" x="219.7882" y="-303.9" font-family="Arial" font-size="14.00" fill="#666666">[int]</text>
<polygon fill="none" stroke="#000000" stroke-width="3" points="161.5,-291.5 161.5,-389.5 318.5,-389.5 318.5,-291.5 161.5,-291.5"/>
</g>
<!-- users -->
<g id="node3" class="node">
<title>users</title>
<polygon fill="#efefef" stroke="transparent" points="162,-132.5 162,-167.5 317,-167.5 317,-132.5 162,-132.5"/>
<polygon fill="none" stroke="#000000" points="162,-132.5 162,-167.5 317,-167.5 317,-132.5 162,-132.5"/>
<text text-anchor="start" x="168.8708" y="-145.3" font-family="Arial Bold" font-size="18.00" fill="#000000">users</text>
<text text-anchor="start" x="212.8754" y="-145.3" font-family="Arial" font-size="14.00" fill="#000000"> </text>
<text text-anchor="start" x="216.766" y="-145.3" font-family="Arial" font-size="14.00" fill="#666666">[BASE TABLE]</text>
<polygon fill="none" stroke="#000000" points="162,-102.5 162,-132.5 317,-132.5 317,-102.5 162,-102.5"/>
<text text-anchor="start" x="169" y="-113.9" font-family="Arial" font-size="14.00" fill="#000000">id </text>
<text text-anchor="start" x="183.7798" y="-113.9" font-family="Arial" font-size="14.00" fill="#666666">[int]</text>
<polygon fill="none" stroke="#000000" points="162,-72.5 162,-102.5 317,-102.5 317,-72.5 162,-72.5"/>
<text text-anchor="start" x="169" y="-83.9" font-family="Arial" font-size="14.00" fill="#000000">name </text>
<text text-anchor="start" x="207.899" y="-83.9" font-family="Arial" font-size="14.00" fill="#666666">[varchar(100)]</text>
<polygon fill="none" stroke="#000000" points="162,-42.5 162,-72.5 317,-72.5 317,-42.5 162,-42.5"/>
<text text-anchor="start" x="169" y="-53.9" font-family="Arial" font-size="14.00" fill="#000000">created_at </text>
<text text-anchor="start" x="239.028" y="-53.9" font-family="Arial" font-size="14.00" fill="#666666">[datetime]</text>
</g>
<!-- posts&#45;&gt;users -->
<g id="edge2" class="edge">
<title>posts:user_id&#45;&gt;users:id</title>
<path fill="none" stroke="#000000" d="M240.9278,-282.4187C248.475,-244.5051 299.9522,-253.8679 317,-211 332.3562,-172.3859 358.5556,-117.5 317,-117.5"/>
<polygon fill="#000000" stroke="#000000" points="240.9165,-282.5421 235.5189,-292.0876 240.4583,-287.521 240,-292.5 240,-292.5 240,-292.5 240.4583,-287.521 244.4811,-292.9124 240.9165,-282.5421 240.9165,-282.5421"/>
<text text-anchor="start" x="6.945" y="-302.5" font-family="Arial" font-size="10.00" fill="#000000">FOREIGN KEY (user_id) REFERENCES users (id)</text>
</g>
<!-- favorites -->
<g id="node2" class="node">
<title>favorites</title>
<polygon fill="#efefef" stroke="transparent" points="150,-602.5 150,-637.5 329,-637.5 329,-602.5 150,-602.5"/>
<polygon fill="none" stroke="#000000" points="150,-602.5 150,-637.5 329,-637.5 329,-602.5 150,-602.5"/>
<text text-anchor="start" x="156.8684" y="-615.3" font-family="Arial Bold" font-size="18.00" fill="#000000">favorites</text>
<text text-anchor="start" x="224.8778" y="-615.3" font-family="Arial" font-size="14.00" fill="#000000"> </text>
<text text-anchor="start" x="228.7684" y="-615.3" font-family="Arial" font-size="14.00" fill="#666666">[BASE TABLE]</text>
<polygon fill="none" stroke="#000000" points="150,-572.5 150,-602.5 329,-602.5 329,-572.5 150,-572.5"/>
<text text-anchor="start" x="157" y="-583.9" font-family="Arial" font-size="14.00" fill="#000000">id </text>
<text text-anchor="start" x="171.7798" y="-583.9" font-family="Arial" font-size="14.00" fill="#666666">[int]</text>
<polygon fill="none" stroke="#000000" points="150,-542.5 150,-572.5 329,-572.5 329,-542.5 150,-542.5"/>
<text text-anchor="start" x="157" y="-553.9" font-family="Arial" font-size="14.00" fill="#000000">user_id </text>
<text text-anchor="start" x="206.7882" y="-553.9" font-family="Arial" font-size="14.00" fill="#666666">[int]</text>
<polygon fill="none" stroke="#000000" points="150,-512.5 150,-542.5 329,-542.5 329,-512.5 150,-512.5"/>
<text text-anchor="start" x="157" y="-523.9" font-family="Arial" font-size="14.00" fill="#000000">post_id </text>
<text text-anchor="start" x="206.0182" y="-523.9" font-family="Arial" font-size="14.00" fill="#666666">[int]</text>
</g>
<!-- favorites&#45;&gt;posts -->
<g id="edge1" class="edge">
<title>favorites:post_id&#45;&gt;posts:id</title>
<path fill="none" stroke="#000000" d="M238.9755,-502.1668C231.1012,-465.6967 180.0401,-475.7063 163,-434 146.7784,-394.2971 120.1111,-337.5 163,-337.5"/>
<polygon fill="#000000" stroke="#000000" points="239.0133,-502.5488 235.522,-512.944 239.5067,-507.5244 240,-512.5 240,-512.5 240,-512.5 239.5067,-507.5244 244.478,-512.056 239.0133,-502.5488 239.0133,-502.5488"/>
<text text-anchor="start" x="247.495" y="-522.5" font-family="Arial" font-size="10.00" fill="#000000">FOREIGN KEY (post_id) REFERENCES posts (id)</text>
</g>
</g>
</svg>
