<?xml version="1.0" encoding="UTF-8" standalone="no"?>
<!DOCTYPE svg PUBLIC "-//W3C//DTD SVG 1.1//EN"
 "http://www.w3.org/Graphics/SVG/1.1/DTD/svg11.dtd">
<!-- Generated by graphviz version 2.40.1 (20161225.0304)
 -->
<!-- Title: tbls_app Pages: 1 -->
<svg width="716pt" height="743pt"
 viewBox="0.00 0.00 716.00 743.00" xmlns="http://www.w3.org/2000/svg" xmlns:xlink="http://www.w3.org/1999/xlink">
<g id="graph0" class="graph" transform="scale(1 1) rotate(0) translate(4 739)">
<title>tbls_app</title>
<polygon fill="#ffffff" stroke="transparent" points="-4,4 -4,-739 712,-739 712,4 -4,4"/>
<!-- favorites -->
<g id="node1" class="node">
<title>favorites</title>
<polygon fill="#efefef" stroke="transparent" points="224,-626.5 224,-661.5 403,-661.5 403,-626.5 224,-626.5"/>
<polygon fill="none" stroke="#000000" points="224,-626.5 224,-661.5 403,-661.5 403,-626.5 224,-626.5"/>
<text text-anchor="start" x="230.8684" y="-639.3" font-family="Arial Bold" font-size="18.00" fill="#000000">favorites</text>
<text text-anchor="start" x="298.8778" y="-639.3" font-family="Arial" font-size="14.00" fill="#000000"> </text>
<text text-anchor="start" x="302.7684" y="-639.3" font-family="Arial" font-size="14.00" fill="#666666">[BASE TABLE]</text>
<polygon fill="none" stroke="#000000" points="224,-596.5 224,-626.5 403,-626.5 403,-596.5 224,-596.5"/>
<text text-anchor="start" x="231" y="-607.9" font-family="Arial" font-size="14.00" fill="#000000">id </text>
<text text-anchor="start" x="245.7798" y="-607.9" font-family="Arial" font-size="14.00" fill="#666666">[int]</text>
<polygon fill="none" stroke="#000000" points="224,-566.5 224,-596.5 403,-596.5 403,-566.5 224,-566.5"/>
<text text-anchor="start" x="231" y="-577.9" font-family="Arial" font-size="14.00" fill="#000000">user_id </text>
<text text-anchor="start" x="280.7882" y="-577.9" font-family="Arial" font-size="14.00" fill="#666666">[int]</text>
<polygon fill="none" stroke="#000000" points="224,-536.5 224,-566.5 403,-566.5 403,-536.5 224,-536.5"/>
<text text-anchor="start" x="231" y="-547.9" font-family="Arial" font-size="14.00" fill="#000000">post_id </text>
<text text-anchor="start" x="280.0182" y="-547.9" font-family="Arial" font-size="14.00" fill="#666666">[int]</text>
</g>
<!-- posts -->
<g id="node2" class="node">
<title>posts</title>
<polygon fill="#efefef" stroke="transparent" points="163,-349.5 163,-384.5 317,-384.5 317,-349.5 163,-349.5"/>
<polygon fill="none" stroke="#000000" points="163,-349.5 163,-384.5 317,-384.5 317,-349.5 163,-349.5"/>
<text text-anchor="start" x="169.8658" y="-362.3" font-family="Arial Bold" font-size="18.00" fill="#000000">posts</text>
<text text-anchor="start" x="212.8804" y="-362.3" font-family="Arial" font-size="14.00" fill="#000000"> </text>
<text text-anchor="start" x="216.771" y="-362.3" font-family="Arial" font-size="14.00" fill="#666666">[BASE TABLE]</text>
<polygon fill="none" stroke="#000000" points="163,-319.5 163,-349.5 317,-349.5 317,-319.5 163,-319.5"/>
<text text-anchor="start" x="170" y="-330.9" font-family="Arial" font-size="14.00" fill="#000000">id </text>
<text text-anchor="start" x="184.7798" y="-330.9" font-family="Arial" font-size="14.00" fill="#666666">[int]</text>
<polygon fill="none" stroke="#000000" points="163,-289.5 163,-319.5 317,-319.5 317,-289.5 163,-289.5"/>
<text text-anchor="start" x="170" y="-300.9" font-family="Arial" font-size="14.00" fill="#000000">user_id </text>
<text text-anchor="start" x="219.7882" y="-300.9" font-family="Arial" font-size="14.00" fill="#666666">[int]</text>
</g>
<!-- favorites&#45;&gt;posts -->
<g id="edge2" class="edge">
<title>favorites:post_id&#45;&gt;posts:id</title>
<path fill="none" stroke="#000000" d="M314.3693,-526.4183C320.6352,-438.5386 403.4557,-334.5 317,-334.5"/>
<polygon fill="#000000" stroke="#000000" points="314.3661,-526.5067 309.503,-536.3352 314.1831,-531.5034 314,-536.5 314,-536.5 314,-536.5 314.1831,-531.5034 318.497,-536.6648 314.3661,-526.5067 314.3661,-526.5067"/>
<text text-anchor="start" x="82.495" y="-546.5" font-family="Arial" font-size="10.00" fill="#000000">FOREIGN KEY (post_id) REFERENCES posts (id)</text>
</g>
<!-- users -->
<g id="node4" class="node">
<title>users</title>
<polygon fill="#efefef" stroke="transparent" points="236,-132.5 236,-167.5 391,-167.5 391,-132.5 236,-132.5"/>
<polygon fill="none" stroke="#000000" points="236,-132.5 236,-167.5 391,-167.5 391,-132.5 236,-132.5"/>
<text text-anchor="start" x="242.8708" y="-145.3" font-family="Arial Bold" font-size="18.00" fill="#000000">users</text>
<text text-anchor="start" x="286.8754" y="-145.3" font-family="Arial" font-size="14.00" fill="#000000"> </text>
<text text-anchor="start" x="290.766" y="-145.3" font-family="Arial" font-size="14.00" fill="#666666">[BASE TABLE]</text>
<polygon fill="none" stroke="#000000" points="236,-102.5 236,-132.5 391,-132.5 391,-102.5 236,-102.5"/>
<text text-anchor="start" x="243" y="-113.9" font-family="Arial" font-size="14.00" fill="#000000">id </text>
<text text-anchor="start" x="257.7798" y="-113.9" font-family="Arial" font-size="14.00" fill="#666666">[int]</text>
<polygon fill="none" stroke="#000000" points="236,-72.5 236,-102.5 391,-102.5 391,-72.5 236,-72.5"/>
<text text-anchor="start" x="243" y="-83.9" font-family="Arial" font-size="14.00" fill="#000000">name </text>
<text text-anchor="start" x="281.899" y="-83.9" font-family="Arial" font-size="14.00" fill="#666666">[varchar(100)]</text>
<polygon fill="none" stroke="#000000" points="236,-42.5 236,-72.5 391,-72.5 391,-42.5 236,-42.5"/>
<text text-anchor="start" x="243" y="-53.9" font-family="Arial" font-size="14.00" fill="#000000">created_at </text>
<text text-anchor="start" x="313.028" y="-53.9" font-family="Arial" font-size="14.00" fill="#666666">[datetime]</text>
</g>
<!-- favorites&#45;&gt;users -->
<g id="edge1" class="edge">
<title>favorites:user_id&#45;&gt;users:id</title>
<path fill="none" stroke="#000000" d="M411.9308,-576.2891C452.9182,-525.3125 439.3495,-117.5 391,-117.5"/>
<polygon fill="#000000" stroke="#000000" points="411.6372,-576.4603 400.7321,-577.6132 407.3186,-578.9801 403,-581.5 403,-581.5 403,-581.5 407.3186,-578.9801 405.2679,-585.3868 411.6372,-576.4603 411.6372,-576.4603"/>
<text text-anchor="start" x="169.945" y="-591.5" font-family="Arial" font-size="10.00" fill="#000000">FOREIGN KEY (user_id) REFERENCES users (id)</text>
</g>
<!-- posts&#45;&gt;users -->
<g id="edge3" class="edge">
<title>posts:user_id&#45;&gt;users:id</title>
<path fill="none" stroke="#000000" d="M239.5344,-279.0901C233.0874,-204.6445 162.9698,-117.5 236,-117.5"/>
<polygon fill="#000000" stroke="#000000" points="239.5531,-279.51 235.5045,-289.7011 239.7765,-284.505 240,-289.5 240,-289.5 240,-289.5 239.7765,-284.505 244.4955,-289.2989 239.5531,-279.51 239.5531,-279.51"/>
<text text-anchor="start" x="6.945" y="-299.5" font-family="Arial" font-size="10.00" fill="#000000">FOREIGN KEY (user_id) REFERENCES users (id)</text>
</g>
<!-- topics -->
<g id="node3" class="node">
<title>topics</title>
<polygon fill="#efefef" stroke="transparent" points="507,-656.5 507,-691.5 665,-691.5 665,-656.5 507,-656.5"/>
<polygon fill="none" stroke="#000000" points="507,-656.5 507,-691.5 665,-691.5 665,-656.5 507,-656.5"/>
<text text-anchor="start" x="513.8687" y="-669.3" font-family="Arial Bold" font-size="18.00" fill="#000000">topics</text>
<text text-anchor="start" x="560.8775" y="-669.3" font-family="Arial" font-size="14.00" fill="#000000"> </text>
<text text-anchor="start" x="564.7681" y="-669.3" font-family="Arial" font-size="14.00" fill="#666666">[BASE TABLE]</text>
<polygon fill="none" stroke="#000000" points="507,-626.5 507,-656.5 665,-656.5 665,-626.5 507,-626.5"/>
<text text-anchor="start" x="514" y="-637.9" font-family="Arial" font-size="14.00" fill="#000000">id </text>
<text text-anchor="start" x="528.7798" y="-637.9" font-family="Arial" font-size="14.00" fill="#666666">[int]</text>
<polygon fill="none" stroke="#000000" points="507,-596.5 507,-626.5 665,-626.5 665,-596.5 507,-596.5"/>
<text text-anchor="start" x="514" y="-607.9" font-family="Arial" font-size="14.00" fill="#000000">topic_key </text>
<text text-anchor="start" x="577.0182" y="-607.9" font-family="Arial" font-size="14.00" fill="#666666">[int]</text>
<polygon fill="none" stroke="#000000" points="507,-566.5 507,-596.5 665,-596.5 665,-566.5 507,-566.5"/>
<text text-anchor="start" x="514" y="-577.9" font-family="Arial" font-size="14.00" fill="#000000">body </text>
<text text-anchor="start" x="548.2384" y="-577.9" font-family="Arial" font-size="14.00" fill="#666666">[text]</text>
<polygon fill="none" stroke="#000000" points="507,-536.5 507,-566.5 665,-566.5 665,-536.5 507,-536.5"/>
<text text-anchor="start" x="514" y="-547.9" font-family="Arial" font-size="14.00" fill="#000000">is_visible </text>
<text text-anchor="start" x="574.6648" y="-547.9" font-family="Arial" font-size="14.00" fill="#666666">[tinyint(1)]</text>
<polygon fill="none" stroke="#000000" points="507,-506.5 507,-536.5 665,-536.5 665,-506.5 507,-506.5"/>
<text text-anchor="start" x="514" y="-517.9" font-family="Arial" font-size="14.00" fill="#000000">deleted_at </text>
<text text-anchor="start" x="583.2566" y="-517.9" font-family="Arial" font-size="14.00" fill="#666666">[datetime]</text>
</g>
</g>
</svg>
