<?xml version="1.0" encoding="UTF-8" standalone="no"?>
<!DOCTYPE svg PUBLIC "-//W3C//DTD SVG 1.1//EN"
 "http://www.w3.org/Graphics/SVG/1.1/DTD/svg11.dtd">
<!-- Generated by graphviz version 2.40.1 (20161225.0304)
 -->
<!-- Title: users Pages: 1 -->
<svg width="592pt" height="472pt"
 viewBox="0.00 0.00 592.00 472.00" xmlns="http://www.w3.org/2000/svg" xmlns:xlink="http://www.w3.org/1999/xlink">
<g id="graph0" class="graph" transform="scale(1 1) rotate(0) translate(4 468)">
<title>users</title>
<polygon fill="#ffffff" stroke="transparent" points="-4,4 -4,-468 588,-468 588,4 -4,4"/>
<!-- users -->
<g id="node1" class="node">
<title>users</title>
<polygon fill="#efefef" stroke="transparent" points="208,-135.5 208,-170.5 363,-170.5 363,-135.5 208,-135.5"/>
<polygon fill="none" stroke="#000000" points="208,-135.5 208,-170.5 363,-170.5 363,-135.5 208,-135.5"/>
<text text-anchor="start" x="214.8708" y="-148.3" font-family="Arial Bold" font-size="18.00" fill="#000000">users</text>
<text text-anchor="start" x="258.8754" y="-148.3" font-family="Arial" font-size="14.00" fill="#000000"> </text>
<text text-anchor="start" x="262.766" y="-148.3" font-family="Arial" font-size="14.00" fill="#666666">[BASE TABLE]</text>
<polygon fill="none" stroke="#000000" points="208,-105.5 208,-135.5 363,-135.5 363,-105.5 208,-105.5"/>
<text text-anchor="start" x="215" y="-116.9" font-family="Arial" font-size="14.00" fill="#000000">id </text>
<text text-anchor="start" x="229.7798" y="-116.9" font-family="Arial" font-size="14.00" fill="#666666">[int]</text>
<polygon fill="none" stroke="#000000" points="208,-75.5 208,-105.5 363,-105.5 363,-75.5 208,-75.5"/>
<text text-anchor="start" x="215" y="-86.9" font-family="Arial" font-size="14.00" fill="#000000">name </text>
<text text-anchor="start" x="253.899" y="-86.9" font-family="Arial" font-size="14.00" fill="#666666">[varchar(100)]</text>
<polygon fill="none" stroke="#000000" points="208,-45.5 208,-75.5 363,-75.5 363,-45.5 208,-45.5"/>
<text text-anchor="start" x="215" y="-56.9" font-family="Arial" font-size="14.00" fill="#000000">created_at </text>
<text text-anchor="start" x="285.028" y="-56.9" font-family="Arial" font-size="14.00" fill="#666666">[datetime]</text>
<polygon fill="none" stroke="#000000" stroke-width="3" points="206,-44.5 206,-172.5 364,-172.5 364,-44.5 206,-44.5"/>
</g>
<!-- favorites -->
<g id="node2" class="node">
<title>favorites</title>
<polygon fill="#efefef" stroke="transparent" points="61,-385.5 61,-420.5 240,-420.5 240,-385.5 61,-385.5"/>
<polygon fill="none" stroke="#000000" points="61,-385.5 61,-420.5 240,-420.5 240,-385.5 61,-385.5"/>
<text text-anchor="start" x="67.8684" y="-398.3" font-family="Arial Bold" font-size="18.00" fill="#000000">favorites</text>
<text text-anchor="start" x="135.8778" y="-398.3" font-family="Arial" font-size="14.00" fill="#000000"> </text>
<text text-anchor="start" x="139.7684" y="-398.3" font-family="Arial" font-size="14.00" fill="#666666">[BASE TABLE]</text>
<polygon fill="none" stroke="#000000" points="61,-355.5 61,-385.5 240,-385.5 240,-355.5 61,-355.5"/>
<text text-anchor="start" x="68" y="-366.9" font-family="Arial" font-size="14.00" fill="#000000">id </text>
<text text-anchor="start" x="82.7798" y="-366.9" font-family="Arial" font-size="14.00" fill="#666666">[int]</text>
<polygon fill="none" stroke="#000000" points="61,-325.5 61,-355.5 240,-355.5 240,-325.5 61,-325.5"/>
<text text-anchor="start" x="68" y="-336.9" font-family="Arial" font-size="14.00" fill="#000000">user_id </text>
<text text-anchor="start" x="117.7882" y="-336.9" font-family="Arial" font-size="14.00" fill="#666666">[int]</text>
<polygon fill="none" stroke="#000000" points="61,-295.5 61,-325.5 240,-325.5 240,-295.5 61,-295.5"/>
<text text-anchor="start" x="68" y="-306.9" font-family="Arial" font-size="14.00" fill="#000000">post_id </text>
<text text-anchor="start" x="117.0182" y="-306.9" font-family="Arial" font-size="14.00" fill="#666666">[int]</text>
</g>
<!-- favorites&#45;&gt;users -->
<g id="edge1" class="edge">
<title>favorites:user_id&#45;&gt;users:id</title>
<path fill="none" stroke="#000000" d="M249.9486,-338.9863C273.9129,-330.2629 252.4167,-285.6585 240,-253 232.3923,-232.9902 215.6077,-237.0098 208,-217 192.7581,-176.9108 165.1111,-120.5 208,-120.5"/>
<polygon fill="#000000" stroke="#000000" points="249.8862,-338.9957 239.3231,-336.0512 244.9431,-339.7478 240,-340.5 240,-340.5 240,-340.5 244.9431,-339.7478 240.6769,-344.9488 249.8862,-338.9957 249.8862,-338.9957"/>
<text text-anchor="start" x="6.945" y="-350.5" font-family="Arial" font-size="10.00" fill="#000000">FOREIGN KEY (user_id) REFERENCES users (id)</text>
</g>
<!-- posts -->
<g id="node3" class="node">
<title>posts</title>
<polygon fill="#efefef" stroke="transparent" points="344,-370.5 344,-405.5 498,-405.5 498,-370.5 344,-370.5"/>
<polygon fill="none" stroke="#000000" points="344,-370.5 344,-405.5 498,-405.5 498,-370.5 344,-370.5"/>
<text text-anchor="start" x="350.8658" y="-383.3" font-family="Arial Bold" font-size="18.00" fill="#000000">posts</text>
<text text-anchor="start" x="393.8804" y="-383.3" font-family="Arial" font-size="14.00" fill="#000000"> </text>
<text text-anchor="start" x="397.771" y="-383.3" font-family="Arial" font-size="14.00" fill="#666666">[BASE TABLE]</text>
<polygon fill="none" stroke="#000000" points="344,-340.5 344,-370.5 498,-370.5 498,-340.5 344,-340.5"/>
<text text-anchor="start" x="351" y="-351.9" font-family="Arial" font-size="14.00" fill="#000000">id </text>
<text text-anchor="start" x="365.7798" y="-351.9" font-family="Arial" font-size="14.00" fill="#666666">[int]</text>
<polygon fill="none" stroke="#000000" points="344,-310.5 344,-340.5 498,-340.5 498,-310.5 344,-310.5"/>
<text text-anchor="start" x="351" y="-321.9" font-family="Arial" font-size="14.00" fill="#000000">user_id </text>
<text text-anchor="start" x="400.7882" y="-321.9" font-family="Arial" font-size="14.00" fill="#666666">[int]</text>
</g>
<!-- posts&#45;&gt;users -->
<g id="edge2" class="edge">
<title>posts:user_id&#45;&gt;users:id</title>
<path fill="none" stroke="#000000" d="M334.3698,-322.596C325.4671,-314.1068 340.2818,-288.6312 344,-268 348.2902,-244.195 358.7098,-240.805 363,-217 370.6071,-174.7911 405.8889,-120.5 363,-120.5"/>
<polygon fill="#000000" stroke="#000000" points="334.4258,-322.6128 342.7008,-329.8084 339.2129,-324.0564 344,-325.5 344,-325.5 344,-325.5 339.2129,-324.0564 345.2992,-321.1916 334.4258,-322.6128 334.4258,-322.6128"/>
<text text-anchor="start" x="350.945" y="-335.5" font-family="Arial" font-size="10.00" fill="#000000">FOREIGN KEY (user_id) REFERENCES users (id)</text>
</g>
</g>
</svg>
